<svg xmlns="http://www.w3.org/2000/svg" viewBox="0 0 420 420" fill="none" role="img" aria-label="Mehndi pattern">
  <g stroke="#8a90a1" stroke-linecap="round" stroke-linejoin="round" opacity="0.88">
    <path stroke-width="2.4" d="M210 52c-86 0-156 70-156 156 0 62 37 118 94 143-20-18-32-44-32-72 0-54 44-98 98-98 52 0 94 40 98 91 26-29 42-67 42-109 0-60-33-113-82-140-19-10-40-15-62-15Z"/>
    <path stroke-width="1.8" d="M210 84c68 0 124 56 124 124 0 31-12 60-31 82-2-44-39-78-83-78-45 0-82 36-82 82 0 23 10 44 25 59-46-20-78-66-78-118 0-83 67-151 150-151Z"/>
    <path stroke-width="2.1" d="M208 145c-35 0-63 28-63 63 0 34 28 63 63 63s64-29 64-63c0-35-29-63-64-63Z"/>
    <path stroke-width="1.6" d="M208 170c-21 0-37 16-37 38 0 20 16 37 37 37s38-17 38-37c0-22-17-38-38-38Z"/>

    <path stroke-width="1.9" d="M209 60c10 8 17 20 17 34 0 25-20 45-45 45-11 0-21-4-29-11 3 24-5 50-24 68 22-10 48-8 67 6 23 17 28 49 11 72 18-15 44-20 68-11-17-19-21-47-8-70 15-26 44-37 70-29-20-13-31-37-29-60-17 11-40 13-59 3-23-12-34-38-30-62-10 12-24 18-39 18Z"/>

    <path stroke-width="1.4" d="M89 230c22 6 39 22 46 43M95 201c28 4 51 22 62 48M108 170c30 1 57 19 73 45"/>
    <path stroke-width="1.4" d="M331 230c-22 6-39 22-46 43M325 201c-28 4-51 22-62 48M312 170c-30 1-57 19-73 45"/>

    <path stroke-width="1.6" d="M210 15c8 20 24 36 44 44-20 8-36 24-44 44-8-20-24-36-44-44 20-8 36-24 44-44Z"/>
    <path stroke-width="1.5" d="M210 317c8 20 24 36 44 44-20 8-36 24-44 44-8-20-24-36-44-44 20-8 36-24 44-44Z"/>

    <circle cx="210" cy="208" r="7" stroke-width="2.6"/>
    <circle cx="210" cy="116" r="4.5" stroke-width="1.6"/>
    <circle cx="210" cy="300" r="4.5" stroke-width="1.6"/>
    <circle cx="118" cy="208" r="4.5" stroke-width="1.6"/>
    <circle cx="302" cy="208" r="4.5" stroke-width="1.6"/>
  </g>
</svg>