<svg xmlns="http://www.w3.org/2000/svg" viewBox="0 0 360 640" fill="none" role="img" aria-label="Mehndi graffiti motif">
  <g stroke="#b5bac5" stroke-linecap="round" stroke-linejoin="round" opacity="0.9">
    <path stroke-width="1.8" d="M180 36c-37 12-63 44-63 84 0 57 46 103 103 103 24 0 46-8 63-22-18 35-55 58-96 58-60 0-108-49-108-109 0-51 35-94 83-106 6-2 12-3 18-3Z"/>
    <path stroke-width="1.5" d="M169 74c-26 9-45 34-45 63 0 38 31 69 69 69 24 0 45-12 58-31-8 40-44 70-87 70-49 0-89-40-89-89 0-42 29-78 68-87 8-2 17-3 26-2Z"/>

    <path stroke-width="1.9" d="M104 250c56-22 123 5 148 61 25 56-2 123-58 149-34 15-71 13-100-3 27 33 75 48 119 36 68-18 109-88 90-156-16-58-68-96-125-96-26 0-52 8-74 24Z"/>
    <path stroke-width="1.5" d="M128 274c41-16 89 4 107 45 19 41-1 89-42 108-24 11-50 10-71-2 20 24 55 35 87 27 49-13 78-64 64-113-11-42-48-70-89-70-19 0-39 6-56 17Z"/>
    <path stroke-width="1.4" d="M170 307c18-7 39 2 47 20 8 18-1 39-19 47-11 5-23 4-33-1 9 11 25 16 39 12 22-6 35-29 29-51-5-19-22-32-41-32-9 0-17 2-22 5Z"/>

    <path stroke-width="1.6" d="M214 150c15-24 42-35 69-30-15 8-24 25-24 43 0 26 21 47 47 47 12 0 23-4 31-12-7 23-29 40-54 40-31 0-56-25-56-56 0-12 4-23 10-32-9 2-17 7-23 14Z"/>
    <path stroke-width="1.4" d="M228 182c9-14 24-21 40-19-9 5-14 14-14 25 0 15 13 28 28 28 8 0 14-3 20-8-5 13-17 22-31 22-18 0-33-15-33-33 0-7 2-11 7-15-6 2-12 5-17 10Z"/>

    <path stroke-width="1.3" d="M60 150c20 8 34 24 40 44M64 186c22 9 38 27 44 50M68 224c25 11 43 30 50 56"/>
    <path stroke-width="1.3" d="M290 122c-17 10-29 25-34 44M297 154c-19 11-31 29-37 50M304 190c-21 13-36 33-42 58"/>
    <path stroke-width="1.3" d="M45 470c24-6 47-2 67 11M57 505c23-5 45-1 64 12M70 540c21-4 40 0 57 11"/>
    <path stroke-width="1.3" d="M270 450c-22-9-45-8-66 2M279 486c-21-8-43-7-62 3M288 522c-20-8-41-7-59 2"/>

    <circle cx="182" cy="79" r="3" stroke-width="1.4"/>
    <circle cx="182" cy="109" r="4" stroke-width="1.4"/>
    <circle cx="183" cy="143" r="5" stroke-width="1.5"/>
    <circle cx="172" cy="335" r="4" stroke-width="1.4"/>
    <circle cx="194" cy="363" r="5" stroke-width="1.4"/>
  </g>

  <g opacity="0.72">
    <text x="318" y="360" fill="#a8aebb" font-size="10" font-family="Times New Roman, serif" letter-spacing="4" transform="rotate(90 318 360)">BESPOKE PATTERNS</text>
  </g>
</svg>